<?xml version="1.0" encoding="iso-8859-1"?>
<!-- Generator: Adobe Illustrator 19.0.0, SVG Export Plug-In . SVG Version: 6.00 Build 0)  -->
<svg version="1.1" id="Capa_1" xmlns="http://www.w3.org/2000/svg" xmlns:xlink="http://www.w3.org/1999/xlink" x="0px" y="0px"
	 viewBox="0 0 489.8 489.8" style="enable-background:new 0 0 489.8 489.8;" xml:space="preserve">
<g>
	<g>
		<g>
			<path d="M0,328.25V80.55c0-19.5,15.8-35.3,35.3-35.3h366.5c19.5,0,35.3,15.8,35.3,35.3v76.9h-48.2v-64.1H48.1v221.6h260v48.5H258
				v39.4h28c4.7,0,8.5,3.8,8.5,8.5v24.5c0,4.7-3.8,8.5-8.5,8.5H150.9c-4.7,0-8.5-3.8-8.5-8.5v-24.5c0-4.7,3.8-8.5,8.5-8.5h28v-39.4
				H35.3C15.8,363.55,0,347.75,0,328.25z M489.8,410.75v-10.1v-7.3v-166.8v-8.4c0-15.7-12.4-28.6-27.6-28.6h-94.4
				c-15.2,0-27.6,12.9-27.6,28.6v8.4v184.3v5.1c0,15.7,12.4,28.6,27.6,28.6h94.4c15.2,0,27.6-12.9,27.6-28.6V410.75z M285.6,213.05
				c-37-37-97.2-37-134.2,0l19.9,19.9c12.6-12.6,29.4-19.6,47.2-19.6s34.6,6.9,47.2,19.6L285.6,213.05z M322.9,175.75
				c-57.6-57.6-151.2-57.6-208.8,0l19.9,19.9c46.6-46.6,122.4-46.6,169,0L322.9,175.75z M189.9,251.45l28.6,28.6l28.7-28.7
				c-6.9-8.2-17.1-13.4-28.7-13.4C207,238.05,196.7,243.25,189.9,251.45z"/>
		</g>
	</g>
</g>
<g>
</g>
<g>
</g>
<g>
</g>
<g>
</g>
<g>
</g>
<g>
</g>
<g>
</g>
<g>
</g>
<g>
</g>
<g>
</g>
<g>
</g>
<g>
</g>
<g>
</g>
<g>
</g>
<g>
</g>
</svg>
